HIERARCHY
ROOT Hips
{
  OFFSET 5.80788e-005 67.184 3.4734
  CHANNELS 6 Xposition Yposition Zposition Zrotation Xrotation Yrotation
  JOINT Chest
  {
    OFFSET 0 8.7983 -4.7612
    CHANNELS 3 Zrotation Xrotation Yrotation
    JOINT Chest2
    {
      OFFSET 0 8.0291 0.4195
      CHANNELS 3 Zrotation Xrotation Yrotation
      JOINT Chest3
      {
        OFFSET 0 9.9351 -2.2114
        CHANNELS 3 Zrotation Xrotation Yrotation
        JOINT Neck
        {
          OFFSET 0 22.3885 -0.4656
          CHANNELS 3 Zrotation Xrotation Yrotation
          JOINT Head
          {
            OFFSET -0.0001 12.643 3.4389
            CHANNELS 3 Zrotation Xrotation Yrotation
            End Site
            {
              OFFSET 0.0001 17.6655 0.5274
            }
          }
        }
        JOINT LeftCollar
        {
          OFFSET 2.2603 21.606 7.4023
          CHANNELS 3 Zrotation Xrotation Yrotation
          JOINT LeftShoulder
          {
            OFFSET 13.5163 -1.1332 -5.0146
            CHANNELS 3 Zrotation Xrotation Yrotation
            JOINT LeftElbow
            {
              OFFSET -0.0995 -28.05 -0.2431
              CHANNELS 3 Zrotation Xrotation Yrotation
              JOINT LeftWrist
              {
                OFFSET 0.0679 -23.3996 -0.1402
                CHANNELS 3 Zrotation Xrotation Yrotation
                JOINT LeftFinger1
                {
                  OFFSET 0.7932 -9.069 2.5189
                  CHANNELS 3 Zrotation Xrotation Yrotation
                  JOINT LeftFinger11
                  {
                    OFFSET -0.8272 -3.3923 0.5977
                    CHANNELS 3 Zrotation Xrotation Yrotation
                    JOINT LeftFinger12
                    {
                      OFFSET -0.5649 -2.3158 0.4082
                      CHANNELS 3 Zrotation Xrotation Yrotation
                      End Site
                      {
                        OFFSET -0.4919 -1.6479 0.2673
                      }
                    }
                  }
                }
                JOINT LeftFinger2
                {
                  OFFSET 0.9159 -9.2044 0.2193
                  CHANNELS 3 Zrotation Xrotation Yrotation
                  JOINT LeftFinger21
                  {
                    OFFSET 0.0117 -4.1944 -0.0248
                    CHANNELS 3 Zrotation Xrotation Yrotation
                    JOINT LeftFinger22
                    {
                      OFFSET 0.0071 -2.3249 -0.0142
                      CHANNELS 3 Zrotation Xrotation Yrotation
                      End Site
                      {
                        OFFSET -0.1475 -2.0882 0.0028
                      }
                    }
                  }
                }
                JOINT LeftFinger3
                {
                  OFFSET 0.6113 -8.7231 -2.0637
                  CHANNELS 3 Zrotation Xrotation Yrotation
                  JOINT LeftFinger31
                  {
                    OFFSET -0.1927 -3.8059 -0.2383
                    CHANNELS 3 Zrotation Xrotation Yrotation
                    JOINT LeftFinger32
                    {
                      OFFSET -0.1091 -2.1688 -0.1362
                      CHANNELS 3 Zrotation Xrotation Yrotation
                      End Site
                      {
                        OFFSET -0.2358 -1.9176 -0.0906
                      }
                    }
                  }
                }
                JOINT LeftFinger4
                {
                  OFFSET -0.6151 -8.0947 -3.5641
                  CHANNELS 3 Zrotation Xrotation Yrotation
                  JOINT LeftFinger41
                  {
                    OFFSET -0.4882 -2.341 -0.6462
                    CHANNELS 3 Zrotation Xrotation Yrotation
                    JOINT LeftFinger42
                    {
                      OFFSET -0.3575 -1.7167 -0.4742
                      CHANNELS 3 Zrotation Xrotation Yrotation
                      End Site
                      {
                        OFFSET -0.4187 -1.5237 -0.3496
                      }
                    }
                  }
                }
                JOINT LeftFinger0
                {
                  OFFSET -1.42 -1.8761 1.4223
                  CHANNELS 3 Zrotation Xrotation Yrotation
                  JOINT LeftFinger01
                  {
                    OFFSET -1.1471 -3.4929 2.6334
                    CHANNELS 3 Zrotation Xrotation Yrotation
                    JOINT LeftFinger02
                    {
                      OFFSET -0.823 -2.3 1.6571
                      CHANNELS 3 Zrotation Xrotation Yrotation
                      End Site
                      {
                        OFFSET -0.5822 -1.6914 1.1582
                      }
                    }
                  }
                }
              }
            }
          }
        }
        JOINT RightCollar
        {
          OFFSET -2.2603 21.606 7.4023
          CHANNELS 3 Zrotation Xrotation Yrotation
          JOINT RightShoulder
          {
            OFFSET -13.5187 -1.1334 -5.0155
            CHANNELS 3 Zrotation Xrotation Yrotation
            JOINT RightElbow
            {
              OFFSET 0.0994 -28.0499 -0.2431
              CHANNELS 3 Zrotation Xrotation Yrotation
              JOINT RightWrist
              {
                OFFSET -0.0679 -23.3996 -0.1402
                CHANNELS 3 Zrotation Xrotation Yrotation
                JOINT RightFinger1
                {
                  OFFSET -0.7932 -9.0691 2.5189
                  CHANNELS 3 Zrotation Xrotation Yrotation
                  JOINT RightFinger11
                  {
                    OFFSET 0.8272 -3.3923 0.5977
                    CHANNELS 3 Zrotation Xrotation Yrotation
                    JOINT RightFinger12
                    {
                      OFFSET 0.565 -2.3158 0.4082
                      CHANNELS 3 Zrotation Xrotation Yrotation
                      End Site
                      {
                        OFFSET 0.4919 -1.6479 0.2673
                      }
                    }
                  }
                }
                JOINT RightFinger2
                {
                  OFFSET -0.916 -9.2044 0.2193
                  CHANNELS 3 Zrotation Xrotation Yrotation
                  JOINT RightFinger21
                  {
                    OFFSET -0.0117 -4.1944 -0.0248
                    CHANNELS 3 Zrotation Xrotation Yrotation
                    JOINT RightFinger22
                    {
                      OFFSET -0.0071 -2.3249 -0.0142
                      CHANNELS 3 Zrotation Xrotation Yrotation
                      End Site
                      {
                        OFFSET 0.1475 -2.0882 0.0028
                      }
                    }
                  }
                }
                JOINT RightFinger3
                {
                  OFFSET -0.6113 -8.7231 -2.0637
                  CHANNELS 3 Zrotation Xrotation Yrotation
                  JOINT RightFinger31
                  {
                    OFFSET 0.1927 -3.8059 -0.2383
                    CHANNELS 3 Zrotation Xrotation Yrotation
                    JOINT RightFinger32
                    {
                      OFFSET 0.1091 -2.1688 -0.1362
                      CHANNELS 3 Zrotation Xrotation Yrotation
                      End Site
                      {
                        OFFSET 0.2358 -1.9176 -0.0906
                      }
                    }
                  }
                }
                JOINT RightFinger4
                {
                  OFFSET 0.6151 -8.0947 -3.564
                  CHANNELS 3 Zrotation Xrotation Yrotation
                  JOINT RightFinger41
                  {
                    OFFSET 0.4882 -2.341 -0.6462
                    CHANNELS 3 Zrotation Xrotation Yrotation
                    JOINT RightFinger42
                    {
                      OFFSET 0.3574 -1.7166 -0.4742
                      CHANNELS 3 Zrotation Xrotation Yrotation
                      End Site
                      {
                        OFFSET 0.4187 -1.5237 -0.3496
                      }
                    }
                  }
                }
                JOINT RightFinger0
                {
                  OFFSET 1.4199 -1.8761 1.4221
                  CHANNELS 3 Zrotation Xrotation Yrotation
                  JOINT RightFinger01
                  {
                    OFFSET 1.1472 -3.4929 2.6336
                    CHANNELS 3 Zrotation Xrotation Yrotation
                    JOINT RightFinger02
                    {
                      OFFSET 0.8229 -2.3 1.6571
                      CHANNELS 3 Zrotation Xrotation Yrotation
                      End Site
                      {
                        OFFSET 0.5822 -1.6914 1.1582
                      }
                    }
                  }
                }
              }
            }
          }
        }
      }
    }
  }
  JOINT RightHip
  {
    OFFSET -9.412 3.9771 -0.7758
    CHANNELS 3 Zrotation Xrotation Yrotation
    JOINT RightKnee
    {
      OFFSET -0.7531 -40.938 0
      CHANNELS 3 Zrotation Xrotation Yrotation
      JOINT RightAnkle
      {
        OFFSET 0 -40.1986 0
        CHANNELS 3 Zrotation Xrotation Yrotation
        JOINT RightToe
        {
          OFFSET 0 -4.4182 9.239
          CHANNELS 3 Zrotation Xrotation Yrotation
          End Site
          {
            OFFSET 0 0 6.1981
          }
        }
      }
    }
  }
  JOINT LeftHip
  {
    OFFSET 9.4119 3.9773 -0.7758
    CHANNELS 3 Zrotation Xrotation Yrotation
    JOINT LeftKnee
    {
      OFFSET 0.7532 -40.9383 0
      CHANNELS 3 Zrotation Xrotation Yrotation
      JOINT LeftAnkle
      {
        OFFSET 0 -40.1986 0
        CHANNELS 3 Zrotation Xrotation Yrotation
        JOINT LeftToe
        {
          OFFSET 0 -4.4182 9.239
          CHANNELS 3 Zrotation Xrotation Yrotation
          End Site
          {
            OFFSET 0 0 6.1981
          }
        }
      }
    }
  }
}
MOTION
Frames:	5
Frame Time:	0.0333333
39.8407 -4.20433 8.12948 5.63527e-009 -25.0011 9.72535e-009 -0.019205 -1.04719 -0.128882 -0.0407769 -2.09435 -0.258181 -0.0407766 -2.09433 -0.25818 10.6441 19.9448 9.32882 -3.79763e-006 12.3713 -5.00221e-006 -11.7793 6.8164 -15.5578 38.8356 -32.9467 35.6061 2.69956 -16.4864 -32.9 -52.2838 12.7588 -7.24071 -1.13201e-006 2.94566e-007 1.14773e-006 3.18055e-015 0 1.59028e-014 -3.18055e-015 -1.59028e-015 -0 -1.13201e-006 2.94566e-007 1.14773e-006 -0.0128003 0.00232658 8.78435e-005 -6.36111e-015 -1.59028e-015 -3.18055e-015 -1.13201e-006 2.94566e-007 1.14773e-006 -0.0160916 0.00300126 0.000861389 4.70612e-008 2.26848e-006 -3.31089e-006 -1.13201e-006 2.94566e-007 1.14773e-006 -0.0126553 0.00313516 0.00283767 -1.1322e-006 2.95115e-007 1.1477e-006 -1.13201e-006 2.94566e-007 1.14773e-006 3.18055e-015 0 1.59028e-014 -3.18055e-015 -1.59028e-015 -0 11.0511 6.80368 10.5493 -35.7794 -34.4578 -30.7708 -3.43642 -17.6729 32.2743 52.0994 13.3959 8.54748 9.54166e-015 4.77083e-015 7.95139e-015 9.54166e-015 1.59028e-015 3.18055e-015 9.54166e-015 4.77083e-015 1.59028e-015 9.54166e-015 4.77083e-015 7.95139e-015 0.0129691 0.00231543 -8.52688e-005 -3.41146e-006 -3.32105e-006 -3.52123e-006 9.54166e-015 4.77083e-015 7.95139e-015 0.0163014 0.00301925 -0.000861694 -1.14737e-006 -4.29829e-007 1.12168e-006 9.54166e-015 4.77083e-015 7.95139e-015 0.0145722 0.00367061 -0.00326439 -6.36111e-015 4.77083e-015 1.59028e-015 9.54166e-015 4.77083e-015 7.95139e-015 9.54166e-015 1.59028e-015 3.18055e-015 9.54166e-015 4.77083e-015 1.59028e-015 -52.5328 -50.911 -121.948 1.9203 52.0907 -2.1924 -3.30463 13.3899 -7.39164 -1.59028e-015 6.36111e-015 1.59028e-015 52.5313 -50.9132 121.923 -1.96469 52.109 2.20313 3.30476 13.3966 7.39789 1.59028e-015 -3.18055e-015 -3.18055e-015 
39.8407 -4.20433 8.19272 -9.19683e-010 -25.0011 4.33071e-009 -0.0185758 -1.18889 -0.129043 -0.0398433 -2.37772 -0.258555 -0.0398433 -2.37772 -0.258555 10.5725 18.8591 9.54445 -3.94332e-006 11.2875 1.69139e-006 -11.9077 7.34967 -15.1067 38.5843 -32.9593 35.4328 2.67698 -16.7474 -32.8942 -52.3809 13.0667 -7.30303 -1.27222e-014 -6.36111e-015 1.59028e-015 0 0 -3.18055e-015 -6.36111e-015 0 -4.77083e-015 -1.27222e-014 -6.36111e-015 1.59028e-015 -0.0128414 0.00233753 9.06217e-005 -3.68804e-006 1.61108e-005 1.1976e-005 -1.27222e-014 -6.36111e-015 1.59028e-015 -0.0159691 0.00297823 0.000853805 -1.08564e-006 1.70601e-006 -2.16309e-006 -1.27222e-014 -6.36111e-015 1.59028e-015 -0.0127121 0.00315313 0.00286172 -4.66822e-006 -2.38664e-006 1.12816e-006 -1.27222e-014 -6.36111e-015 1.59028e-015 0 0 -3.18055e-015 -6.36111e-015 0 -4.77083e-015 11.1702 7.33284 10.0971 -35.5337 -34.4504 -30.5859 -3.40786 -17.9362 32.2594 52.1949 13.7164 8.6251 -6.36111e-015 2.03468e-006 -4.77083e-015 1.76556e-031 3.18055e-015 -3.18055e-015 2.26268e-006 -9.19646e-007 1.1136e-006 -6.36111e-015 2.03468e-006 -4.77083e-015 0.0129303 0.00230933 -7.62941e-005 -3.39193e-006 -5.95013e-006 9.38595e-008 -6.36111e-015 2.03468e-006 -4.77083e-015 0.0163092 0.00304614 -0.000876064 -9.54166e-015 6.36111e-015 3.18055e-015 -6.36111e-015 2.03468e-006 -4.77083e-015 0.014607 0.00368236 -0.00327478 1.13232e-006 3.48149e-006 2.32115e-006 -6.36111e-015 2.03468e-006 -4.77083e-015 1.76556e-031 3.18055e-015 -3.18055e-015 2.26268e-006 -9.19646e-007 1.1136e-006 -52.5332 -50.9107 -121.948 1.92036 52.091 -2.19242 -3.30463 13.3899 -7.39164 8.16791e-007 -4.15147e-006 4.73147e-006 52.5312 -50.9132 121.923 -1.96465 52.109 2.20314 3.30478 13.3965 7.39786 1.59028e-015 0 -0 
39.8407 -4.20433 8.25596 4.39164e-009 -25.0011 -6.76105e-008 -0.0179511 -1.33051 -0.129182 -0.0389195 -2.66098 -0.258885 -0.0389194 -2.66097 -0.258884 10.5054 17.7697 9.75798 2.52773e-006 10.2003 -6.04568e-007 -12.0405 7.88194 -14.6539 38.3265 -32.9738 35.2559 2.66024 -17.0095 -32.8887 -52.4778 13.3748 -7.36482 -3.18055e-015 6.36111e-015 -4.77083e-015 -6.36111e-015 -4.77083e-015 6.36111e-015 -9.54166e-015 3.18055e-015 -3.18055e-015 -3.18055e-015 6.36111e-015 -4.77083e-015 -0.0128284 0.00231826 8.2338e-005 -6.36111e-015 3.18055e-015 1.59028e-015 -3.18055e-015 6.36111e-015 -4.77083e-015 -0.0160353 0.00299847 0.000859401 6.62086e-031 4.77083e-015 -7.95139e-015 -3.18055e-015 6.36111e-015 -4.77083e-015 -0.0125843 0.00313505 0.00283659 3.18055e-015 4.77083e-015 6.36111e-015 -3.18055e-015 6.36111e-015 -4.77083e-015 -6.36111e-015 -4.77083e-015 6.36111e-015 -9.54166e-015 3.18055e-015 -3.18055e-015 11.2937 7.8611 9.64338 -35.2598 -34.4496 -30.3852 -3.4032 -18.2051 32.2444 52.29 14.037 8.70229 8.82781e-032 3.18055e-015 -1.59028e-015 3.18055e-015 0 -1.59028e-015 -2.29852e-006 1.54175e-005 -8.34172e-006 8.82781e-032 3.18055e-015 -1.59028e-015 0.0129473 0.00232829 -8.60515e-005 3.18055e-015 -7.95139e-015 3.18055e-015 8.82781e-032 3.18055e-015 -1.59028e-015 0.0163056 0.00304018 -0.000879574 -3.18055e-015 0 -6.36111e-015 8.82781e-032 3.18055e-015 -1.59028e-015 0.0145036 0.00368031 -0.00324453 -1.27222e-014 0 -4.77083e-015 8.82781e-032 3.18055e-015 -1.59028e-015 3.18055e-015 0 -1.59028e-015 -2.29852e-006 1.54175e-005 -8.34172e-006 -52.5327 -50.911 -121.948 1.92025 52.0907 -2.19238 -3.3046 13.3899 -7.39166 1.14236e-005 -5.14013e-006 -6.8576e-007 52.5308 -50.9134 121.922 -1.96458 52.1087 2.20307 3.30477 13.3966 7.39786 -4.33487e-006 -7.62614e-006 8.14587e-006 
39.8407 -4.20433 8.3192 -6.96899e-009 -25.0011 -7.31194e-009 -0.0173237 -1.47199 -0.129329 -0.0379916 -2.94397 -0.259234 -0.0379912 -2.94393 -0.259232 10.4428 16.6767 9.96957 7.02762e-007 9.10993 1.37902e-006 -12.1777 8.413 -14.1993 38.0737 -32.9856 35.0817 2.63892 -17.2706 -32.8832 -52.5745 13.6829 -7.42624 -1.08757e-006 8.49294e-007 -2.16264e-006 3.18055e-015 -1.59028e-015 1.59028e-015 -2.40423e-006 1.83629e-006 -1.16636e-006 -1.08757e-006 8.49294e-007 -2.16264e-006 -0.0128034 0.00231218 8.05419e-005 -3.18055e-015 1.59028e-015 -6.36111e-015 -1.08757e-006 8.49294e-007 -2.16264e-006 -0.0160189 0.00299166 0.000857836 -1.08663e-006 1.70592e-006 -2.16274e-006 -1.08757e-006 8.49294e-007 -2.16264e-006 -0.012521 0.003106 0.00280832 -2.40476e-006 -1.81373e-007 -1.16636e-006 -1.08757e-006 8.49294e-007 -2.16264e-006 3.18055e-015 -1.59028e-015 1.59028e-015 -2.40423e-006 1.83629e-006 -1.16636e-006 11.4215 8.38822 9.18797 -34.997 -34.4452 -30.1909 -3.38918 -18.4718 32.2295 52.3847 14.3577 8.77908 4.41391e-032 1.59028e-015 -1.59028e-015 -3.18055e-015 2.9409e-006 -6.36111e-015 3.18055e-015 4.77083e-015 9.54166e-015 4.41391e-032 1.59028e-015 -1.59028e-015 0.0129462 0.00232255 -8.8122e-005 9.54166e-015 -1.59028e-015 1.59028e-015 4.41391e-032 1.59028e-015 -1.59028e-015 0.0163156 0.00305047 -0.000887113 9.54166e-015 -6.36111e-015 -0 4.41391e-032 1.59028e-015 -1.59028e-015 0.0145268 0.0036718 -0.00326481 -3.18055e-015 1.59028e-015 7.95139e-015 4.41391e-032 1.59028e-015 -1.59028e-015 -3.18055e-015 2.9409e-006 -6.36111e-015 3.18055e-015 4.77083e-015 9.54166e-015 -52.5328 -50.911 -121.948 1.9203 52.0907 -2.1924 -3.30463 13.3899 -7.39164 -3.18055e-015 3.18055e-015 1.59028e-015 52.5307 -50.9135 121.922 -1.96458 52.1085 2.20309 3.30478 13.3965 7.3979 1.59028e-015 -3.18055e-015 -3.18055e-015 
39.8407 -4.20433 8.38244 -3.76228e-009 -25.0011 7.50891e-009 -0.0166995 -1.61332 -0.129459 -0.0370695 -3.22662 -0.259544 -0.0370694 -3.2266 -0.259544 10.3845 15.5803 10.1794 -1.19778e-006 8.0165 2.87456e-006 -12.3192 8.94289 -13.7429 37.8143 -32.9993 34.904 2.62346 -17.5328 -32.8777 -52.671 13.9911 -7.48718 -6.36111e-015 9.54166e-015 -6.36111e-015 9.54166e-015 1.27222e-014 -3.18055e-015 2.36186e-006 -6.1195e-006 4.47676e-006 -6.36111e-015 9.54166e-015 -6.36111e-015 -0.012844 0.0023205 8.23297e-005 -7.17495e-022 -2.87228e-006 -1.43125e-014 -6.36111e-015 9.54166e-015 -6.36111e-015 -0.0160144 0.00298458 0.000851233 2.54852e-006 -3.08813e-006 4.6288e-006 -6.36111e-015 9.54166e-015 -6.36111e-015 -0.0126134 0.00312496 0.00283231 3.3496e-006 1.35691e-006 -1.34995e-007 -6.36111e-015 9.54166e-015 -6.36111e-015 9.54166e-015 1.27222e-014 -3.18055e-015 2.36186e-006 -6.1195e-006 4.47676e-006 11.5537 8.91423 8.73086 -34.7452 -34.4374 -30.0026 -3.36608 -18.7364 32.2148 52.4792 14.6786 8.85535 1.11733e-006 1.59506e-006 2.23487e-006 3.18055e-015 2.93946e-006 -3.18055e-015 -9.54166e-015 -3.18055e-015 -6.36111e-015 1.11733e-006 1.59506e-006 2.23487e-006 0.0129747 0.00232648 -8.9455e-005 -3.18055e-015 3.18055e-015 -0 1.11733e-006 1.59506e-006 2.23487e-006 0.0162835 0.00302808 -0.00087371 1.08645e-006 2.76582e-006 5.59273e-006 1.11733e-006 1.59506e-006 2.23487e-006 0.0145382 0.00366461 -0.00324773 9.54166e-015 3.18055e-015 7.95139e-015 1.11733e-006 1.59506e-006 2.23487e-006 3.18055e-015 2.93946e-006 -3.18055e-015 -9.54166e-015 -3.18055e-015 -6.36111e-015 -52.5329 -50.9109 -121.948 1.9203 52.0908 -2.19238 -3.30464 13.3899 -7.39164 -9.43199e-007 -8.07842e-006 1.41364e-006 52.5307 -50.9135 121.922 -1.96454 52.1086 2.20306 3.30476 13.3965 7.3979 6.25945e-006 3.4649e-006 -1.11391e-005 
